<svg xmlns="http://www.w3.org/2000/svg" width="20" height="20" viewBox="0 0 20 20" fill="none">
    <path d="M9.20831 9.19253C9.20831 8.98257 9.29172 8.7812 9.44019 8.63274C9.58865 8.48427 9.79002 8.40086 9.99998 8.40086C10.2099 8.40086 10.4113 8.48427 10.5598 8.63274C10.7082 8.7812 10.7916 8.98257 10.7916 9.19253V13.9425C10.7916 14.1525 10.7082 14.3539 10.5598 14.5023C10.4113 14.6508 10.2099 14.7342 9.99998 14.7342C9.79002 14.7342 9.58865 14.6508 9.44019 14.5023C9.29172 14.3539 9.20831 14.1525 9.20831 13.9425V9.19253ZM9.99998 5.29041C9.79002 5.29041 9.58865 5.37381 9.44019 5.52228C9.29172 5.67075 9.20831 5.87211 9.20831 6.08207C9.20831 6.29203 9.29172 6.4934 9.44019 6.64186C9.58865 6.79033 9.79002 6.87374 9.99998 6.87374C10.2099 6.87374 10.4113 6.79033 10.5598 6.64186C10.7082 6.4934 10.7916 6.29203 10.7916 6.08207C10.7916 5.87211 10.7082 5.67075 10.5598 5.52228C10.4113 5.37381 10.2099 5.29041 9.99998 5.29041Z"
          fill="#999999"/>
    <path fill-rule="evenodd" clip-rule="evenodd"
          d="M9.99998 2.08337C5.6276 2.08337 2.08331 5.62767 2.08331 10C2.08331 14.3724 5.6276 17.9167 9.99998 17.9167C14.3724 17.9167 17.9166 14.3724 17.9166 10C17.9166 5.62767 14.3724 2.08337 9.99998 2.08337ZM3.66665 10C3.66665 11.6797 4.33391 13.2907 5.52164 14.4784C6.70937 15.6661 8.32028 16.3334 9.99998 16.3334C11.6797 16.3334 13.2906 15.6661 14.4783 14.4784C15.6661 13.2907 16.3333 11.6797 16.3333 10C16.3333 8.32034 15.6661 6.70943 14.4783 5.5217C13.2906 4.33397 11.6797 3.66671 9.99998 3.66671C8.32028 3.66671 6.70937 4.33397 5.52164 5.5217C4.33391 6.70943 3.66665 8.32034 3.66665 10Z"
          fill="#999999"/>
</svg>