<svg xmlns="http://www.w3.org/2000/svg" width="24" height="24" viewBox="0 0 24 24" fill="none">
    <path d="M9.8 16.275C9.6 16.075 9.504 15.8333 9.512 15.55C9.52 15.2667 9.62434 15.025 9.825 14.825L11.65 13H4C3.71667 13 3.479 12.904 3.287 12.712C3.095 12.52 2.99934 12.2827 3 12C3 11.7167 3.096 11.479 3.288 11.287C3.48 11.095 3.71734 10.9993 4 11H11.65L9.8 9.15C9.6 8.95 9.5 8.71234 9.5 8.437C9.5 8.16167 9.6 7.92434 9.8 7.725C10 7.525 10.2377 7.425 10.513 7.425C10.7883 7.425 11.0257 7.525 11.225 7.725L14.8 11.3C14.9 11.4 14.971 11.5083 15.013 11.625C15.055 11.7417 15.0757 11.8667 15.075 12C15.075 12.1333 15.0543 12.2583 15.013 12.375C14.9717 12.4917 14.9007 12.6 14.8 12.7L11.2 16.3C11.0167 16.4833 10.7877 16.575 10.513 16.575C10.2383 16.575 10.0007 16.475 9.8 16.275ZM5 21C4.45 21 3.979 20.804 3.587 20.412C3.195 20.02 2.99934 19.5493 3 19V16C3 15.7167 3.096 15.479 3.288 15.287C3.48 15.095 3.71734 14.9993 4 15C4.28334 15 4.521 15.096 4.713 15.288C4.905 15.48 5.00067 15.7173 5 16V19H19V5H5V8C5 8.28334 4.904 8.521 4.712 8.713C4.52 8.905 4.28267 9.00067 4 9C3.71667 9 3.479 8.904 3.287 8.712C3.095 8.52 2.99934 8.28267 3 8V5C3 4.45 3.196 3.979 3.588 3.587C3.98 3.195 4.45067 2.99934 5 3H19C19.55 3 20.021 3.196 20.413 3.588C20.805 3.98 21.0007 4.45067 21 5V19C21 19.55 20.804 20.021 20.412 20.413C20.02 20.805 19.5493 21.0007 19 21H5Z"
          fill="#A7A7A7"/>
</svg>