<svg xmlns="http://www.w3.org/2000/svg" width="17" height="16" viewBox="0 0 17 16" fill="none">
    <path d="M4.5 5.33329C4.5 5.15648 4.57024 4.98691 4.69526 4.86189C4.82029 4.73686 4.98986 4.66663 5.16667 4.66663H11.8333C12.0101 4.66663 12.1797 4.73686 12.3047 4.86189C12.4298 4.98691 12.5 5.15648 12.5 5.33329C12.5 5.5101 12.4298 5.67967 12.3047 5.8047C12.1797 5.92972 12.0101 5.99996 11.8333 5.99996H5.16667C4.98986 5.99996 4.82029 5.92972 4.69526 5.8047C4.57024 5.67967 4.5 5.5101 4.5 5.33329ZM5.83333 7.99996C5.83333 7.82315 5.90357 7.65358 6.0286 7.52855C6.15362 7.40353 6.32319 7.33329 6.5 7.33329H10.5C10.6768 7.33329 10.8464 7.40353 10.9714 7.52855C11.0964 7.65358 11.1667 7.82315 11.1667 7.99996C11.1667 8.17677 11.0964 8.34634 10.9714 8.47136C10.8464 8.59639 10.6768 8.66663 10.5 8.66663H6.5C6.32319 8.66663 6.15362 8.59639 6.0286 8.47136C5.90357 8.34634 5.83333 8.17677 5.83333 7.99996ZM7.83333 9.99996C7.65652 9.99996 7.48695 10.0702 7.36193 10.1952C7.2369 10.3202 7.16667 10.4898 7.16667 10.6666C7.16667 10.8434 7.2369 11.013 7.36193 11.138C7.48695 11.2631 7.65652 11.3333 7.83333 11.3333H9.16667C9.34348 11.3333 9.51305 11.2631 9.63807 11.138C9.7631 11.013 9.83333 10.8434 9.83333 10.6666C9.83333 10.4898 9.7631 10.3202 9.63807 10.1952C9.51305 10.0702 9.34348 9.99996 9.16667 9.99996H7.83333Z"
          fill="#999999"/>
</svg>